<svg width="200" height="98" viewBox="0 0 200 98" fill="none" xmlns="http://www.w3.org/2000/svg">
<g clip-path="url(#clip0_0_251)">
<path d="M0.880859 4C0.880859 1.79086 2.67172 0 4.88086 0H195.881C198.09 0 199.881 1.79086 199.881 4V98H0.880859V4Z" fill="#005AFF"/>
<path d="M94.2997 111.599C111.961 101.801 118.336 79.5419 108.538 61.8808C98.7409 44.2197 76.4814 37.8449 58.8203 47.6423C41.1592 57.4397 34.7844 79.6992 44.5818 97.3603C54.3791 115.021 76.6386 121.396 94.2997 111.599Z" fill="#024A84"/>
<path d="M81.2539 91.4056L96.1586 83.1373L98.6884 87.6977L78.074 99.1334L59.851 66.2839L65.5607 63.1164L81.2539 91.4056Z" fill="#024A84"/>
<path d="M94.3089 111.835C76.6235 121.646 54.2576 115.241 44.4468 97.5553C34.6359 79.8699 41.0412 57.5041 58.7266 47.6932C76.4119 37.8824 98.7778 44.2876 108.589 61.973C118.399 79.6584 111.994 102.024 94.3089 111.835ZM62.2334 54.0147C48.0332 61.8922 42.8908 79.8483 50.7683 94.0485C58.6458 108.249 76.6019 113.391 90.8021 105.514C105.002 97.6361 110.145 79.68 102.267 65.4798C94.3897 51.2796 76.4336 46.1372 62.2334 54.0147Z" fill="#024A84"/>
<path d="M48.3113 110.571C65.5452 121.102 88.0529 115.668 98.5836 98.434C109.114 81.2001 103.68 58.6924 86.4466 48.1617C69.2127 37.6309 46.705 43.0649 36.1743 60.2987C25.6435 77.5326 31.0775 100.04 48.3113 110.571Z" fill="#FEBF43"/>
<path d="M59.4425 89.2625L73.9866 98.1497L71.2674 102.6L51.1516 90.308L70.7388 58.2531L76.3104 61.6577L59.4425 89.2625Z" fill="white"/>
<path d="M48.1103 110.696C30.8527 100.15 25.3928 77.5351 35.938 60.2775C46.4832 43.02 69.0985 37.5601 86.356 48.1053C103.614 58.6505 109.073 81.2658 98.5283 98.5233C87.9831 115.781 65.3678 121.241 48.1103 110.696ZM82.5867 54.2739C68.73 45.8068 50.5737 50.1902 42.1066 64.0469C33.6395 77.9035 38.0229 96.0599 51.8796 104.527C65.7363 112.994 83.8926 108.611 92.3597 94.754C100.827 80.8973 96.4434 62.741 82.5867 54.2739Z" fill="#FFD488"/>
<path d="M96.7855 77.9293C96.8141 78.4814 96.7999 79.0536 96.7856 79.6258C96.3812 95.8596 82.8491 108.734 66.6153 108.33C56.0824 108.067 46.9599 102.263 41.9756 93.7833L34.8412 95.8534C40.834 107.263 52.681 115.214 66.4564 115.557C86.6745 116.061 103.53 100.024 104.034 79.8064C104.067 78.4712 104.035 77.1769 103.919 75.8804L96.7855 77.9293Z" fill="#FFA910"/>
<path d="M102.46 68.2314C101.989 66.714 101.432 65.2369 100.789 63.8001L93.7408 65.8299C94.4477 67.2471 95.0264 68.7036 95.4975 70.2209L102.46 68.2314Z" fill="#FFA910"/>
<path d="M38.9505 86.6059C38.5429 85.0902 38.2424 83.5346 38.0907 81.9616L31.0421 83.9915C31.2574 85.5661 31.5791 87.1221 31.9872 88.6167L38.9505 86.6059Z" fill="#FFA910"/>
<path d="M84.2328 11.972C84.6196 11.1495 84.8407 10.2336 84.8407 9.26168C84.8407 5.80374 82.0775 3 78.6696 3C76.017 3 73.7512 4.70093 72.8854 7.09346C72.1486 6.73832 71.338 6.5514 70.4722 6.5514C67.3222 6.5514 64.7617 9.14953 64.7617 12.3458C64.7617 15.5421 67.3222 18.1402 70.4722 18.1402C71.2459 18.1402 71.9828 17.9907 72.6459 17.7103C73.2907 20.7383 75.9433 23 79.1301 23C82.7959 23 85.7617 19.9907 85.7617 16.271C85.7617 14.6449 85.1907 13.1308 84.2328 11.972Z" fill="#024A84"/>
<path d="M37.2328 94.972C37.6196 94.1495 37.8407 93.2336 37.8407 92.2617C37.8407 88.8037 35.0775 86 31.6696 86C29.017 86 26.7512 87.7009 25.8854 90.0935C25.1486 89.7383 24.338 89.5514 23.4722 89.5514C20.3222 89.5514 17.7617 92.1495 17.7617 95.3458C17.7617 98.5421 20.3222 101.14 23.4722 101.14C24.2459 101.14 24.9828 100.991 25.6459 100.71C26.2907 103.738 28.9433 106 32.1301 106C35.7959 106 38.7617 102.991 38.7617 99.271C38.7617 97.6449 38.1907 96.1308 37.2328 94.972Z" fill="#024A84"/>
<path d="M79.3519 9.97196C79.7388 9.14953 79.9598 8.23364 79.9598 7.26168C79.9598 3.80374 77.1966 1 73.7888 1C71.1361 1 68.8703 2.70093 68.0045 5.09346C67.2677 4.73832 66.4572 4.5514 65.5914 4.5514C62.4414 4.5514 59.8809 7.14953 59.8809 10.3458C59.8809 13.5421 62.4414 16.1402 65.5914 16.1402C66.3651 16.1402 67.1019 15.9907 67.7651 15.7103C68.4098 18.7383 71.0624 21 74.2493 21C77.9151 21 80.8809 17.9907 80.8809 14.271C80.8809 12.6449 80.3098 11.1308 79.3519 9.97196Z" fill="#FBF3CF"/>
<path d="M32.3519 92.972C32.7388 92.1495 32.9598 91.2336 32.9598 90.2617C32.9598 86.8037 30.1966 84 26.7888 84C24.1361 84 21.8703 85.7009 21.0045 88.0935C20.2677 87.7383 19.4572 87.5514 18.5914 87.5514C15.4414 87.5514 12.8809 90.1495 12.8809 93.3458C12.8809 96.5421 15.4414 99.1402 18.5914 99.1402C19.3651 99.1402 20.1019 98.9907 20.7651 98.7103C21.4098 101.738 24.0624 104 27.2493 104C30.9151 104 33.8809 100.991 33.8809 97.271C33.8809 95.6449 33.3098 94.1308 32.3519 92.972Z" fill="#FBF3CF"/>
<path d="M112.577 28.1124C112.577 25.2793 110.283 22.9763 107.461 22.9763C106.735 22.9763 106.058 23.1254 105.431 23.3905C104.754 20.8556 102.443 19 99.7035 19C96.419 19 93.7617 21.6675 93.7617 24.9645C93.7617 26.3893 94.2569 27.6982 95.0821 28.7254C94.2404 29.9183 93.7617 31.3598 93.7617 32.9172C93.7617 36.9432 97.0132 40.2071 101.024 40.2071C104.952 40.2071 108.137 37.0923 108.286 33.1822C110.712 32.7846 112.577 30.6639 112.577 28.1124Z" fill="#024A84"/>
<path d="M106.577 28.1124C106.577 25.2793 104.283 22.9763 101.461 22.9763C100.735 22.9763 100.058 23.1254 99.4306 23.3905C98.754 20.8556 96.4433 19 93.7035 19C90.419 19 87.7617 21.6675 87.7617 24.9645C87.7617 26.3893 88.2569 27.6982 89.0821 28.7254C88.2404 29.9183 87.7617 31.3598 87.7617 32.9172C87.7617 36.9432 91.0132 40.2071 95.0239 40.2071C98.952 40.2071 102.137 37.0923 102.286 33.1822C104.712 32.7846 106.577 30.6639 106.577 28.1124Z" fill="#FBF3CF"/>
<path d="M93.0042 71.3289C93.0107 71.3772 93.015 71.4093 93.0214 71.4575C93.5451 75.3638 97.0593 78.1164 100.87 77.6055C104.681 77.0945 107.346 73.5135 106.823 69.6072C106.667 68.4498 106.254 67.3924 105.639 66.4931C106.547 65.4058 107.02 63.9351 106.815 62.4079C106.434 59.5626 103.883 57.5645 101.107 57.9367C99.3035 58.1785 97.8509 59.3715 97.1531 60.9542C95.9407 59.8894 94.3181 59.3378 92.6243 59.5649C89.4563 59.9896 87.2513 62.9526 87.6866 66.1998C88.066 69.0291 90.3275 71.1314 93.0042 71.3289Z" fill="#024A84"/>
<path d="M18.8401 39.0667C18.881 39.0295 18.9083 39.0046 18.9492 38.9673C22.2605 35.9462 22.5556 30.878 19.6083 27.6474C16.6609 24.4167 11.5869 24.2469 8.27553 27.2679C7.29437 28.1631 6.57393 29.2345 6.1323 30.3925C4.52778 30.2486 2.84643 30.7594 1.55185 31.9405C-0.860144 34.141 -1.07435 37.82 1.0725 40.1731C2.46736 41.702 4.52365 42.2864 6.45508 41.9129C6.2457 43.7361 6.78175 45.61 8.0917 47.0458C10.5418 49.7313 14.74 49.8719 17.4927 47.3606C19.8911 45.1725 20.3903 41.6964 18.8401 39.0667Z" fill="#024A84"/>
<path d="M89.3968 76.2069C89.4033 76.2551 89.4076 76.2872 89.4141 76.3355C89.9378 80.2418 93.452 82.9944 97.263 82.4834C101.074 81.9725 103.739 78.3914 103.215 74.4851C103.06 73.3277 102.647 72.2703 102.031 71.371C102.939 70.2838 103.413 68.813 103.208 67.2858C102.826 64.4405 100.276 62.4424 97.4997 62.8146C95.6961 63.0564 94.2436 64.2494 93.5458 65.8321C92.3333 64.7673 90.7108 64.2157 89.017 64.4428C85.849 64.8676 83.6439 67.8306 84.0793 71.0778C84.4586 73.907 86.7202 76.0093 89.3968 76.2069Z" fill="#FEE1A7"/>
<path d="M12.7369 39.2757C12.7778 39.2384 12.805 39.2136 12.8459 39.1763C16.1573 36.1552 16.4524 31.087 13.505 27.8563C10.5576 24.6257 5.48364 24.4558 2.17225 27.4769C1.1911 28.372 0.470655 29.4434 0.0290324 30.6015C-1.57549 30.4576 -3.25684 30.9684 -4.55142 32.1495C-6.96342 34.35 -7.17762 38.029 -5.03077 40.3821C-3.63592 41.911 -1.57962 42.4954 0.351806 42.1219C0.142425 43.9451 0.678478 45.819 1.98842 47.2548C4.43851 49.9403 8.63678 50.0809 11.3895 47.5696C13.7878 45.3815 14.287 41.9054 12.7369 39.2757Z" fill="#FEE1A7"/>
<g clip-path="url(#clip1_0_251)">
<path d="M127.622 11.6132C123.13 13.8427 121.088 18.8818 123.06 22.8537C123.363 23.4647 123.745 24.0185 124.185 24.5076C119.805 28.4042 118.183 34.432 120.638 39.3787C121.072 40.2516 121.605 41.0385 122.225 41.7464C119.506 46.1786 118.953 51.549 121.249 56.1756C124.571 62.8681 132.754 65.7696 140.529 63.4156C140.582 64.5679 140.865 65.7148 141.4 66.7914C143.711 71.4471 149.85 73.1143 155.117 70.5001C159.723 68.2136 162.125 63.4311 161.108 59.1485L161.309 59.0488L138.076 12.2446L137.56 12.501C135.04 10.3428 131.109 9.88225 127.622 11.6132Z" fill="#024A84"/>
<path d="M155.494 63.5127C152.71 64.8946 149.323 63.7287 147.922 60.9062C147.503 60.0624 147.307 59.1625 147.312 58.2715C145.423 58.3932 143.545 57.3849 142.642 55.5663C142.296 54.868 142.129 54.1349 142.127 53.4105C136.908 55.0398 131.111 52.6222 128.569 47.5009C125.832 41.9868 127.891 35.3614 133.15 32.4429C131.618 31.8432 130.286 30.6729 129.491 29.0726C127.802 25.6681 129.156 21.5504 132.514 19.8836C135.872 18.2168 139.971 19.6277 141.66 23.0322C142 23.716 142.21 24.4277 142.32 25.153L147.238 35.0609C147.843 35.7759 148.384 36.5773 148.817 37.4503C149.25 38.3232 149.562 39.2386 149.765 40.1531L156.785 54.2947C157.26 54.7478 157.671 55.2874 157.982 55.913C158.292 56.5386 158.473 57.1921 158.547 57.8447L158.612 57.9756L158.555 58.0041C158.754 60.2442 157.603 62.4657 155.494 63.5127Z" fill="#024A84"/>
<path d="M206.758 26.2973L157.691 54.7511C154.356 56.7151 150.085 55.5346 148.417 52.1737L148.323 51.9846C146.785 48.8857 148.046 45.0859 151.167 43.3737L201.645 15.9966L206.758 26.2973Z" fill="#024A84"/>
<path d="M205.606 39.1104L163.705 66.0383C160.355 68.2629 155.848 67.1455 154.115 63.6538C152.613 60.6276 153.774 56.9139 156.773 55.1354L206.758 26.2981L208.318 29.4407C209.994 32.8161 208.826 36.9499 205.606 39.1104Z" fill="#024A84"/>
<path d="M192.604 -2.21886L140.272 19.6588C136.691 21.1282 135.049 25.2434 136.718 28.6043L136.811 28.7934C138.35 31.8923 142.139 33.1848 145.39 31.7344L197.717 8.08184L192.604 -2.21886Z" fill="#024A84"/>
<path d="M181.702 -9.04784L134.919 8.04486C131.122 9.36748 129.286 13.6333 131.02 17.125C132.522 20.1512 136.182 21.4715 139.411 20.1586L192.604 -2.21894L191.044 -5.36153C189.368 -8.7369 185.37 -10.3064 181.702 -9.04784Z" fill="#024A84"/>
<path d="M197.702 8.05337L201.985 16.6809L151.612 43.2259C148.298 44.9799 144.235 43.7504 142.618 40.4914L142.611 40.4769C140.978 37.1888 142.491 33.1739 145.943 31.6238L197.702 8.05337Z" fill="#024A84"/>
</g>
<g clip-path="url(#clip2_0_251)">
<path d="M129.952 -1.76423C125.461 0.465288 123.567 5.80287 125.721 10.1418C126.052 10.8093 126.462 11.4182 126.927 11.9597C122.611 15.984 121.181 22.399 123.863 27.8028C124.337 28.7564 124.909 29.6212 125.566 30.4044C122.961 35.0651 122.595 40.8133 125.103 45.8674C128.732 53.1783 137.172 56.596 145.002 54.3536C145.098 55.5932 145.429 56.8356 146.013 58.0117C148.537 63.0976 154.85 65.1143 160.117 62.5001C164.723 60.2136 166.993 55.1649 165.8 50.5274L166 50.4277L140.621 -0.701243L140.105 -0.444813C137.459 -2.85579 133.44 -3.49514 129.952 -1.76423Z" fill="#FBF3CF"/>
<path d="M160.244 55.0087C157.46 56.3906 153.968 55.0137 152.438 51.9303C151.98 51.0085 151.747 50.0347 151.719 49.0778C149.8 49.139 147.851 47.9869 146.865 46.0002C146.486 45.2374 146.289 44.4438 146.26 43.6656C141.006 45.2237 135.015 42.4135 132.238 36.819C129.248 30.7955 131.101 23.7546 136.348 20.8133C134.766 20.1128 133.367 18.8067 132.499 17.0584C130.653 13.3394 131.88 8.96627 135.238 7.29947C138.596 5.63268 142.822 7.29903 144.668 11.0181C145.039 11.7651 145.279 12.5372 145.417 13.3204L150.79 24.1438C151.432 24.9341 152.013 25.8148 152.486 26.7684C152.959 27.722 153.31 28.7167 153.551 29.7064L161.219 45.1548C161.72 45.659 162.158 46.2537 162.497 46.9371C162.836 47.6205 163.045 48.3291 163.144 49.0328L163.215 49.1758L163.157 49.2043C163.443 51.6178 162.353 53.9616 160.244 55.0087Z" fill="#FEE1A7"/>
<path d="M211.075 16.9211L162.159 45.6788C158.834 47.6656 154.442 46.2404 152.62 42.569L152.518 42.3624C150.837 38.9771 151.982 34.9421 155.097 33.2178L205.489 5.66861L211.075 16.9211Z" fill="#EAECED"/>
<path d="M210.373 30.6408L168.697 58.023C165.369 60.2893 160.738 58.9233 158.845 55.1089C157.204 51.803 158.25 47.8568 161.237 46.0568L211.075 16.9211L212.779 20.354C214.609 24.0413 213.572 28.4385 210.373 30.6408Z" fill="#EF404D"/>
<path d="M195.612 -14.23L143.13 7.34384C139.538 8.79031 138.017 13.1503 139.84 16.8216L139.942 17.0282C141.623 20.4135 145.529 21.9412 148.786 20.5029L201.198 -2.97754L195.612 -14.23Z" fill="#EAECED"/>
<path d="M184.26 -21.9663L137.252 -5.32801C133.434 -4.04706 131.722 0.467417 133.615 4.28182C135.256 7.58764 139.032 9.14052 142.272 7.8491L195.612 -14.23L193.908 -17.663C192.078 -21.3502 187.949 -23.1832 184.26 -21.9663Z" fill="#EF404D"/>
<path d="M201.182 -3.00923L205.86 6.41553L155.545 33.0747C152.234 34.8369 148.052 33.3667 146.285 29.8066L146.277 29.7907C144.494 26.1988 145.887 21.9419 149.345 20.4039L201.182 -3.00923Z" fill="#F0414E"/>
</g>
</g>
<defs>
<clipPath id="clip0_0_251">
<path d="M0.880859 4C0.880859 1.79086 2.67172 0 4.88086 0H195.881C198.09 0 199.881 1.79086 199.881 4V98H0.880859V4Z" fill="white"/>
</clipPath>
<clipPath id="clip1_0_251">
<rect width="64.9711" height="89.8767" fill="white" transform="translate(133.649 81.1562) rotate(-116.399)"/>
</clipPath>
<clipPath id="clip2_0_251">
<rect width="70.9745" height="89.8767" fill="white" transform="translate(138.649 73.1562) rotate(-116.399)"/>
</clipPath>
</defs>
</svg>
