<svg width="200" height="98" viewBox="0 0 200 98" fill="none" xmlns="http://www.w3.org/2000/svg">
<g clip-path="url(#clip0_0_120)">
<path d="M0.880859 4C0.880859 1.79086 2.67172 0 4.88086 0H195.881C198.09 0 199.881 1.79086 199.881 4V98H0.880859V4Z" fill="#2CC2B0"/>
<path fill-rule="evenodd" clip-rule="evenodd" d="M180.185 24.8851C180.497 29.7688 179.34 34.6928 176.811 38.9578C180.815 40.1424 184.624 42.0193 188.048 44.5465C194.592 49.3756 199.306 56.2373 201.481 63.9941C202.352 63.1288 203.147 62.2079 203.868 61.2315C211.482 50.9134 209.322 36.3887 199.046 28.8055C193.42 24.6541 186.524 23.4405 180.185 24.8851ZM179.192 19.3935C187.111 17.629 195.673 19.108 202.588 24.2625C215.28 33.7237 217.944 51.8167 208.483 64.6371C206.831 66.8763 204.912 68.8321 202.747 70.4778C203.026 73.8305 202.09 77.1649 200.078 79.8914L169.079 121.9C164.78 127.725 156.647 128.959 150.832 124.668L122.895 104.053C117.522 100.088 116.073 92.8417 119.255 87.1922L119.031 87.33L120.039 85.9643C120.071 85.9199 120.104 85.8756 120.136 85.8314L147.11 49.2782C146.019 48.8585 144.955 48.3588 143.928 47.7805L138.105 52.2004L131.885 46.6557L126.715 50.5705L130.351 58.0726L123.335 63.3932L117.092 57.8794L111.945 61.7634L115.527 69.2736L115.472 69.3158L115.482 69.3373L111.921 72.027L108.886 74.3452L102.665 68.8006L97.4954 72.7154L101.108 80.2483L97.5852 82.8973L97.3915 82.9178L87.5901 84.0131L87.1592 83.3993L84.2502 79.5316L84.2407 79.5388L81.9174 76.4406L82.1418 76.2705L85.9459 67.4372L132.249 32.3473C130.046 23.2181 133.263 13.2084 141.266 7.15309C151.583 -0.639313 166.056 0.979414 174.341 10.5996C174.629 10.9241 174.891 11.2539 175.161 11.5948L175.161 11.5949C175.225 11.6749 175.288 11.7555 175.353 11.8369C177.114 14.1792 178.388 16.7388 179.192 19.3935ZM162.216 27.3839C159.331 29.6072 155.411 29.4671 152.718 27.3109C151.446 24.1199 152.34 20.3626 155.233 18.1742C158.138 15.976 162.022 16.1223 164.722 18.2583C164.633 18.0427 164.538 17.8346 164.435 17.632C166.163 20.923 165.282 25.0744 162.216 27.3839ZM152.886 15.1069C150.062 17.2724 149.12 20.9918 150.361 24.149C149.086 20.9936 150.04 17.2283 152.877 15.053C155.784 12.813 159.741 12.9721 162.435 15.1748C159.737 13.0026 155.782 12.8754 152.886 15.1069Z" fill="#014D41"/>
<path d="M113.574 87.692L140.733 107.734C146.387 111.905 154.302 110.695 158.49 105.019L188.698 64.0841C190.914 61.0808 191.793 57.3227 191.139 53.6392L190.808 51.7713C189.2 42.9312 184.27 35.0253 177.031 29.6838C169.254 23.945 159.435 21.6625 149.914 23.3578C146.515 23.9573 143.444 25.8657 141.383 28.6588L110.91 69.9541C106.743 75.6003 107.921 83.5203 113.574 87.692Z" fill="#FF5D1B"/>
<path d="M129.79 64.406L160.897 87.3612L157.994 91.2955L126.887 68.3403L129.79 64.406Z" fill="#CF4514"/>
<path d="M139.227 82.9191L155.379 94.8381L152.476 98.7724L136.324 86.8534L139.227 82.9191Z" fill="#CF4514"/>
<path d="M165.889 36.7712L109.935 71.2774L140.829 29.4114L166.487 37.2126" fill="#CF4514"/>
<path d="M141.811 36.9108L133.723 43.0498L127.676 37.6595L122.65 41.4653L126.184 48.7586L119.364 53.9312L113.295 48.5709L108.291 52.3467L111.773 59.648L105.317 64.5784L99.2691 59.1881L94.2431 62.994L97.7554 70.3173L94.3305 72.8925L84.605 73.9263L79.1948 66.7333L83.015 57.8627L130.495 21.881L141.811 36.9108Z" fill="#FFDE5A"/>
<path d="M129.008 38.7333L133.768 42.9882L139.825 38.412L134.346 34.6933L129.008 38.7333Z" fill="#FDA700"/>
<path d="M114.627 49.6456L119.409 53.8704L126.111 48.7959L123.337 43.0383L114.627 49.6456Z" fill="#FDA700"/>
<path d="M100.601 60.2599L105.362 64.5147L111.729 59.7044L108.956 53.9468L100.601 60.2599Z" fill="#FDA700"/>
<path d="M83.8705 72.9159L84.6138 73.9747L94.3315 72.8888L97.6822 70.3515L94.9087 64.5939L83.8705 72.9159Z" fill="#FDA700"/>
<path d="M136.797 -0.748731C147.235 -8.63258 162.049 -6.60739 169.905 3.78217C177.739 14.2018 175.658 29.0413 165.251 36.9472C154.813 44.8311 139.999 42.8059 132.143 32.4163C124.287 22.0268 126.338 7.16515 136.797 -0.748731ZM146.62 17.4935C149.111 20.8163 153.843 21.4785 157.164 18.9192C160.493 16.4119 161.172 11.6718 158.629 8.35697C156.138 5.03418 151.406 4.37202 148.085 6.93134C144.786 9.46063 144.107 14.2008 146.62 17.4935Z" fill="#FFDE5A"/>
<path d="M158.659 8.38236C159.057 8.90775 159.35 9.44907 159.599 10.0504C156.974 7.97384 153.198 7.83165 150.374 9.9687C147.549 12.1057 146.685 15.7817 147.946 18.8928C147.46 18.4876 146.996 18.0523 146.628 17.5489C144.137 14.2262 144.794 9.51604 148.093 6.98676C151.414 4.42744 156.168 5.05957 158.659 8.38236Z" fill="#FDA700"/>
<path d="M81.3573 69.624L79.0986 66.612L123.562 32.9034L129.171 33.3781L81.3573 69.624Z" fill="#FDA700"/>
<path d="M163.233 34.2986C173.21 26.7249 175.534 12.8073 168.863 2.50314C169.245 2.92432 169.575 3.35347 169.935 3.80469C177.769 14.2243 175.689 29.0638 165.281 36.9697C154.873 44.8756 140.029 42.8284 132.173 32.4388C131.813 31.9876 131.505 31.5284 131.197 31.0693C139.255 40.3089 153.255 41.8724 163.233 34.2986Z" fill="#FDA700"/>
<path d="M191.167 9.96717C203.506 19.1652 206.095 36.7547 196.897 49.2184C195.213 51.5009 193.244 53.4805 191.012 55.1273C190.962 54.0692 190.881 52.9892 190.674 51.955C190.467 50.9209 190.178 49.8726 189.814 48.8623C190.77 47.9436 191.635 46.9587 192.411 45.9075C199.813 35.8765 197.713 21.756 187.723 14.3838C177.732 7.01167 163.62 9.16902 156.218 19.2C155.93 19.5905 155.493 19.8705 155.017 20.0764C153.97 20.5562 152.757 20.6351 151.653 20.3775L149.26 19.864C150.011 18.2839 150.513 17.541 151.466 16.2496C160.752 3.66577 178.708 0.680877 191.167 9.96717Z" fill="#1D272C"/>
<path d="M15.7095 92.6563C38.1406 94.1455 57.5318 77.1687 59.021 54.7376C60.5102 32.3065 43.5334 12.9153 21.1023 11.4261C-1.32885 9.93693 -20.7201 26.9137 -22.2092 49.3448C-23.6984 71.7759 -6.72161 91.1671 15.7095 92.6563Z" fill="#014D41"/>
<path d="M13.9411 66.2215L32.8712 67.4782L32.4867 73.2703L6.30466 71.5321L9.07451 29.8104L16.3264 30.2918L13.9411 66.2215Z" fill="#014D41"/>
<path d="M14.7677 92.8305C-8.14003 91.3097 -25.5365 71.4391 -24.0157 48.5314C-22.4949 25.6237 -2.62431 8.22729 20.2834 9.7481C43.1911 11.2689 60.5875 31.1395 59.0667 54.0471C57.5459 76.9548 37.6753 94.3513 14.7677 92.8305ZM19.7398 17.9363C1.34639 16.7152 -14.6064 30.6816 -15.8275 49.075C-17.0486 67.4684 -3.08213 83.4212 15.3113 84.6423C33.7046 85.8634 49.6574 71.8969 50.8785 53.5035C52.0996 35.1102 38.1332 19.1574 19.7398 17.9363Z" fill="#014D41"/>
<path d="M27.2589 83.0809C46.1365 75.9017 55.6199 54.7785 48.4407 35.901C41.2615 17.0234 20.1383 7.53998 1.26077 14.7192C-17.6168 21.8984 -27.1002 43.0215 -19.921 61.8991C-12.7418 80.7766 8.38134 90.26 27.2589 83.0809Z" fill="#FEBF43"/>
<path d="M17.2255 61.2339L33.1568 55.1752L35.0106 60.0497L12.9763 68.4294L-0.376968 33.3172L5.72605 30.9963L17.2255 61.2339Z" fill="white"/>
<path d="M27.2343 83.3161C8.33077 90.5051 -12.8934 80.9764 -20.0824 62.0729C-27.2714 43.1694 -17.7427 21.9453 1.16078 14.7562C20.0643 7.56718 41.2884 17.0959 48.4774 35.9994C55.6665 54.9029 46.1378 76.127 27.2343 83.3161ZM3.73045 21.5131C-11.4478 27.2855 -19.0978 44.3249 -13.3255 59.5032C-7.55315 74.6815 9.48632 82.3315 24.6646 76.5592C39.8429 70.7868 47.4929 53.7474 41.7205 38.5691C35.9482 23.3908 18.9087 15.7408 3.73045 21.5131Z" fill="#FFD488"/>
<path d="M31.1272 24.7691C31.5813 25.0845 32.025 25.4461 32.4687 25.8077C45.0568 36.0663 46.9515 54.6479 36.6929 67.236C30.0368 75.4035 19.8623 79.0628 10.1063 77.8124L7.37521 84.7208C20.0656 86.9678 33.605 82.4682 42.3101 71.7864C55.0865 56.1087 52.7266 32.9637 37.0489 20.1874C36.0136 19.3436 34.971 18.576 33.8748 17.8741L31.1272 24.7691Z" fill="#FFA910"/>
<path d="M26.9335 14.3448C25.4453 13.7883 23.9364 13.3244 22.4068 12.953L19.6964 19.7689C21.2498 20.0776 22.7556 20.5117 24.2438 21.0682L26.9335 14.3448Z" fill="#FFA910"/>
<path d="M2.57921 75.8101C1.13119 75.2043 -0.282736 74.4896 -1.61935 73.6465L-4.32977 80.4624C-2.95298 81.2562 -1.52566 81.9545 -0.0940726 82.5468L2.57921 75.8101Z" fill="#FFA910"/>
</g>
<defs>
<clipPath id="clip0_0_120">
<path d="M0.880859 4C0.880859 1.79086 2.67172 0 4.88086 0H195.881C198.09 0 199.881 1.79086 199.881 4V98H0.880859V4Z" fill="white"/>
</clipPath>
</defs>
</svg>
