<svg width="40" height="40" viewBox="0 0 40 40" fill="none" xmlns="http://www.w3.org/2000/svg">
<path d="M17.3727 5.82035L17.3727 5.82033L6.71901 13.2627L17.3727 5.82035ZM17.3727 5.82035L17.3782 5.81642M17.3727 5.82035L17.3782 5.81642M17.3782 5.81642C18.9142 4.72786 21.0858 4.72786 22.6218 5.81642L22.6218 5.81644M17.3782 5.81642L22.6218 5.81644M22.6218 5.81644L22.6273 5.82033M22.6218 5.81644L22.6273 5.82033M22.6273 5.82033L33.281 13.2627L22.6273 5.82033ZM9.34588 35H30.6541C33.1052 35 35 33.1362 35 31.0148V16.4454C35 15.21 34.3838 14.0342 33.2814 13.263L9.34588 35ZM9.34588 35C6.89475 35 5 33.1362 5 31.0148M9.34588 35L5 31.0148M5 31.0148V16.4454M5 31.0148V16.4454M5 16.4454C5 15.21 5.6162 14.0342 6.71856 13.263L5 16.4454Z" stroke="#D5D5DC" stroke-width="2"/>
</svg>
