<svg width="30" height="40" viewBox="0 0 30 33" fill="none" xmlns="http://www.w3.org/2000/svg">
<path d="M3.60654 12.0673L3.60654 12.0673L3.60675 12.0633C3.95919 5.21981 9.93913 0.252165 16.6505 1.15659C21.9049 1.86467 26.1272 6.43195 26.3931 11.7786C26.4498 12.9832 26.4492 14.1573 26.4486 15.3582C26.4482 16.1168 26.4478 16.8862 26.4618 17.6808L26.4619 17.6888L26.4622 17.6968C26.4784 18.1893 26.6041 18.7175 26.8173 19.1668C27.3076 20.2208 27.8105 21.269 28.3102 22.3106C28.5245 22.7571 28.7382 23.2025 28.95 23.6465V23.6467V23.649V23.6513V23.6536V23.6559V23.6582V23.6605V23.6628V23.6651V23.6674V23.6697V23.6719V23.6742V23.6765V23.6788V23.6811V23.6834V23.6857V23.688V23.6903V23.6926V23.6949V23.6972V23.6995V23.7018V23.7041V23.7064V23.7087V23.711V23.7133V23.7156V23.7179V23.7202V23.7225V23.7248V23.7271V23.7294V23.7317V23.734V23.7363V23.7386V23.7409V23.7432V23.7455V23.7478V23.7501V23.7524V23.7547V23.757V23.7593V23.7616V23.7639V23.7662V23.7685V23.7708V23.7731V23.7754V23.7777V23.78V23.7823V23.7846V23.7869V23.7892V23.7915V23.7938V23.7961V23.7984V23.8007V23.8031V23.8054V23.8077V23.81V23.8123V23.8146V23.8169V23.8192V23.8215V23.8238V23.8261V23.8284V23.8307V23.833V23.8353V23.8376V23.8399V23.8422V23.8445V23.8468V23.8491V23.8514V23.8537V23.856V23.8583V23.8607V23.863V23.8653V23.8676V23.8699V23.8722V23.8745V23.8768V23.8791V23.8814V23.8837V23.886V23.8883V23.8906V23.8929V23.8952V23.8975V23.8998V23.9022V23.9045V23.9068V23.9091V23.9114V23.9137V23.916V23.9183V23.9206V23.9229V23.9252V23.9275V23.9298V23.9321V23.9344V23.9367V23.9391V23.9414V23.9437V23.946V23.9483V23.9506V23.9529V23.9552V23.9575V23.9598V23.9621V23.9644V23.9667V23.969V23.9713V23.9737V23.976V23.9783V23.9806V23.9829V23.9852V23.9875V23.9898V23.9921V23.9944V23.9967V23.999V24.0013V24.0036V24.0059V24.0083V24.0106V24.0129V24.0152V24.0175V24.0198V24.0221V24.0244V24.0267V24.029V24.0313V24.0336V24.0359V24.0382V24.0406V24.0429V24.0452V24.0475V24.0498V24.0521V24.0544V24.0567V24.059V24.0613V24.0636V24.0659V24.0682V24.0705V24.0728V24.0751V24.0775V24.0798V24.0821V24.0844V24.0867V24.089V24.0913V24.0936V24.0959V24.0982V24.1005V24.1028V24.1051V24.1074V24.1097V24.112V24.1143V24.1167V24.119V24.1213V24.1236V24.1259V24.1282V24.1305V24.1328V24.1351V24.1374V24.1397V24.142V24.1443V24.1466V24.1489V24.1512V24.1535V24.1558V24.1581V24.1604V24.1628V24.1651V24.1674V24.1697V24.172V24.1743V24.1766V24.1789V24.1812V24.1835V24.1858V24.1881V24.1904V24.1927V24.195V24.1973V24.1996V24.2019V24.2042V24.2065V24.2088V24.2111V24.2134V24.2157V24.218V24.2203V24.2226V24.2249V24.2272V24.2295V24.2318V24.2341V24.2364V24.2387V24.241V24.2433V24.2456V24.2479V24.2502V24.2525V24.2548V24.2571V24.2594V24.2617V24.264V24.2663V24.2686V24.2709V24.2732V24.2755V24.2778V24.2801V24.2824V24.2847V24.287V24.2893V24.2916V24.2939V24.2962V24.2985V24.3008V24.3031V24.3054V24.3077V24.31V24.3123V24.3146V24.3169V24.3192V24.3215V24.3238V24.3261V24.3284V24.3307V24.333V24.3353V24.3376V24.3399V24.3422V24.3445V24.3468V24.349V24.3513V24.3536V24.3559V24.3575C28.9204 24.4202 28.8807 24.5045 28.8432 24.5955L28.838 24.6081L28.8331 24.6209C28.5232 25.432 27.8931 25.8731 27.093 25.8731L27.0915 25.8731C19.0344 25.8848 10.9773 25.8848 2.90851 25.8731H2.90698C2.11604 25.8731 1.47585 25.4296 1.1669 24.6209L1.16201 24.6081L1.15679 24.5955C1.12574 24.5202 1.08633 24.4325 1.05 24.3535V24.3513V24.349V24.3468V24.3445V24.3422V24.3399V24.3376V24.3353V24.333V24.3307V24.3284V24.3261V24.3238V24.3215V24.3192V24.3169V24.3146V24.3123V24.31V24.3077V24.3054V24.3031V24.3008V24.2985V24.2962V24.2939V24.2916V24.2893V24.287V24.2847V24.2824V24.2801V24.2778V24.2755V24.2732V24.2709V24.2686V24.2663V24.264V24.2617V24.2594V24.2571V24.2548V24.2525V24.2502V24.2479V24.2456V24.2433V24.241V24.2387V24.2364V24.2341V24.2318V24.2295V24.2272V24.2249V24.2226V24.2203V24.218V24.2157V24.2134V24.2111V24.2088V24.2065V24.2042V24.2019V24.1996V24.1973V24.195V24.1927V24.1904V24.1881V24.1858V24.1835V24.1812V24.1789V24.1766V24.1743V24.172V24.1697V24.1674V24.1651V24.1628V24.1604V24.1581V24.1558V24.1535V24.1512V24.1489V24.1466V24.1443V24.142V24.1397V24.1374V24.1351V24.1328V24.1305V24.1282V24.1259V24.1236V24.1213V24.119V24.1167V24.1143V24.112V24.1097V24.1074V24.1051V24.1028V24.1005V24.0982V24.0959V24.0936V24.0913V24.089V24.0867V24.0844V24.0821V24.0798V24.0775V24.0751V24.0728V24.0705V24.0682V24.0659V24.0636V24.0613V24.059V24.0567V24.0544V24.0521V24.0498V24.0475V24.0452V24.0429V24.0406V24.0382V24.0359V24.0336V24.0313V24.029V24.0267V24.0244V24.0221V24.0198V24.0175V24.0152V24.0129V24.0106V24.0083V24.0059V24.0036V24.0013V23.999V23.9967V23.9944V23.9921V23.9898V23.9875V23.9852V23.9829V23.9806V23.9783V23.976V23.9737V23.9713V23.969V23.9667V23.9644V23.9621V23.9598V23.9575V23.9552V23.9529V23.9506V23.9483V23.946V23.9437V23.9414V23.9391V23.9367V23.9344V23.9321V23.9298V23.9275V23.9252V23.9229V23.9206V23.9183V23.916V23.9137V23.9114V23.9091V23.9068V23.9045V23.9022V23.8998V23.8975V23.8952V23.8929V23.8906V23.8883V23.886V23.8837V23.8814V23.8791V23.8768V23.8745V23.8722V23.8699V23.8676V23.8653V23.863V23.8607V23.8583V23.856V23.8537V23.8514V23.8491V23.8468V23.8445V23.8422V23.8399V23.8376V23.8353V23.833V23.8307V23.8284V23.8261V23.8238V23.8215V23.8192V23.8169V23.8146V23.8123V23.81V23.8077V23.8054V23.8031V23.8007V23.7984V23.7961V23.7938V23.7915V23.7892V23.7869V23.7846V23.7823V23.78V23.7777V23.7754V23.7731V23.7708V23.7685V23.7662V23.7639V23.7616V23.7593V23.757V23.7547V23.7524V23.7501V23.7478V23.7455V23.7432V23.7409V23.7386V23.7363V23.734V23.7317V23.7294V23.7271V23.7248V23.7225V23.7202V23.7179V23.7156V23.7133V23.711V23.7087V23.7064V23.7041V23.7018V23.6995V23.6972V23.6949V23.6926V23.6903V23.688V23.6857V23.6834V23.6811V23.6788V23.6765V23.6742V23.6719V23.6697V23.6674V23.6651V23.6628V23.6605V23.6582V23.6559V23.6536V23.6513V23.649V23.6482C1.20464 23.3264 1.36006 23.0038 1.51586 22.6804C2.08447 21.5002 2.6582 20.3094 3.21783 19.1076C3.41655 18.6876 3.5366 18.1994 3.53835 17.7199C3.55215 16.9604 3.55024 16.2307 3.54836 15.5143C3.54531 14.3534 3.54236 13.2277 3.60654 12.0673Z" stroke="#D5D5DC" stroke-width="2.1"/>
<path d="M18.497 29.6906H18.4984C18.3005 30.0659 18.0032 30.4333 17.6125 30.7618C16.8591 31.3951 15.8636 31.7881 14.8877 31.7746C13.9992 31.7612 13.0465 31.3513 12.3132 30.7036C11.9497 30.3825 11.6744 30.035 11.4887 29.6906H11.4963H11.5152H11.5342H11.5531H11.5721H11.591H11.6099H11.6289H11.6478H11.6668H11.6857H11.7046H11.7236H11.7425H11.7614H11.7804H11.7993H11.8183H11.8372H11.8561H11.8751H11.894H11.913H11.9319H11.9508H11.9698H11.9887H12.0077H12.0266H12.0455H12.0645H12.0834H12.1023H12.1213H12.1402H12.1592H12.1781H12.197H12.216H12.2349H12.2538H12.2728H12.2917H12.3107H12.3296H12.3485H12.3675H12.3864H12.4053H12.4243H12.4432H12.4622H12.4811H12.5H12.519H12.5379H12.5568H12.5758H12.5947H12.6136H12.6326H12.6515H12.6705H12.6894H12.7083H12.7273H12.7462H12.7651H12.7841H12.803H12.8219H12.8409H12.8598H12.8787H12.8977H12.9166H12.9356H12.9545H12.9734H12.9924H13.0113H13.0302H13.0492H13.0681H13.087H13.106H13.1249H13.1438H13.1628H13.1817H13.2006H13.2196H13.2385H13.2574H13.2764H13.2953H13.3142H13.3332H13.3521H13.371H13.39H13.4089H13.4846H13.6361H13.7876H13.939H14.0147H14.0336H14.0526H14.0904H14.2419H14.3933H14.5447H14.6961H14.8475H14.9989H15.0746H15.1125H15.1314H15.1503H15.3017H15.4531H15.6044H15.7558H15.8314H15.8503H15.8693H15.9071H16.0584H16.2097H16.3611H16.4367H16.4745H16.4934H16.5123H16.6636H16.6825H16.7015H16.7204H16.7393H16.7582H16.7771H16.796H16.8149H16.8338H16.8527H16.8716H16.8905H16.9095H16.9284H16.9473H16.9662H16.9851H17.004H17.0229H17.0418H17.0607H17.0796H17.0985H17.1174H17.1363H17.1552H17.1741H17.193H17.2119H17.2309H17.2498H17.2687H17.2876H17.3065H17.3254H17.3443H17.3632H17.3821H17.401H17.4199H17.4388H17.4577H17.4766H17.4955H17.5144H17.5333H17.5522H17.5711H17.59H17.6089H17.6278H17.6467H17.6656H17.6845H17.7034H17.7223H17.7412H17.7601H17.779H17.7979H17.8168H17.8357H17.8546H17.8735H17.8924H17.9113H17.9302H17.9491H17.968H17.9869H18.0058H18.0247H18.0436H18.0625H18.0813H18.1002H18.1191H18.138H18.1569H18.1758H18.1947H18.2136H18.2325H18.2514H18.2703H18.2892H18.3081H18.327H18.3459H18.3647H18.3836H18.4025H18.4214H18.4403H18.4592H18.4781H18.497Z" stroke="#D5D5DC" stroke-width="2.1"/>
<circle cx="24" cy="6" r="6" fill="#FC5A5A"/>
</svg>
