<svg width="40" height="40" viewBox="0 0 40 40" fill="none" xmlns="http://www.w3.org/2000/svg">
<path d="M28.1948 33.0713L28.1953 33.0711C29.411 32.3707 30.3498 31.5736 30.9881 30.6315C31.6179 29.702 31.9894 28.5817 32 27.1666C31.9983 25.6555 30.8722 24.1325 28.9944 24.1809C26.8821 24.2441 24.7591 24.2298 22.6577 24.2157C21.7659 24.2097 20.878 24.2037 19.9965 24.2037C17.9092 24.2186 15.8079 24.2136 13.7088 24.2086C12.6623 24.2062 11.6163 24.2037 10.573 24.2037C9.27399 24.2227 8.22941 25.159 8.06823 26.4023L8.06819 26.4026C7.88529 27.8093 8.05584 29.0904 8.74787 30.2378C9.63474 31.6989 10.9724 32.7077 12.586 33.4846L28.1948 33.0713ZM28.1948 33.0713C25.678 34.5232 22.8565 35.0208 19.8644 34.9992L28.1948 33.0713ZM19.8642 34.9992C17.2898 34.9775 14.8402 34.5678 12.5862 33.4847L19.8642 34.9992Z" stroke="#D5D5DC" stroke-width="2"/>
<path d="M19.975 5.00009C23.8742 4.98042 27.0641 8.10858 27.1051 11.9406C27.1234 15.7683 23.9323 18.9804 20.0103 19.0001C16.0919 19.0198 12.8817 15.83 12.8802 12.0027C12.9014 8.17032 16.0724 5.01978 19.975 5.00009Z" stroke="#D5D5DC" stroke-width="2"/>
</svg>
